<?xml version="1.0" encoding="UTF-8" standalone="no"?>
<!-- Created with Inkscape (http://www.inkscape.org/) -->

<svg
   xmlns:dc="http://purl.org/dc/elements/1.1/"
   xmlns:cc="http://creativecommons.org/ns#"
   xmlns:rdf="http://www.w3.org/1999/02/22-rdf-syntax-ns#"
   xmlns:svg="http://www.w3.org/2000/svg"
   xmlns="http://www.w3.org/2000/svg"
   xmlns:sodipodi="http://sodipodi.sourceforge.net/DTD/sodipodi-0.dtd"
   xmlns:inkscape="http://www.inkscape.org/namespaces/inkscape"
   width="2048"
   height="2048"
   viewBox="0 0 541.86666 541.86669"
   version="1.1"
   id="svg8"
   inkscape:version="0.92.3 (2405546, 2018-03-11)"
   sodipodi:docname="level1.svg"
   inkscape:export-filename="C:\Users\aseab\OneDrive\Documents\Projects\2-buttons-jam-2018\Unity\v0.3 - Pinball Platformer\2-Buttons Jam 2018\Assets\SpriteSheets\balls.png"
   inkscape:export-xdpi="96"
   inkscape:export-ydpi="96">
  <defs
     id="defs2" />
  <sodipodi:namedview
     id="base"
     pagecolor="#ffffff"
     bordercolor="#666666"
     borderopacity="1.0"
     inkscape:pageopacity="0.0"
     inkscape:pageshadow="2"
     inkscape:zoom="0.24748737"
     inkscape:cx="806.32367"
     inkscape:cy="631.26499"
     inkscape:document-units="px"
     inkscape:current-layer="layer1"
     showgrid="true"
     units="px"
     objecttolerance="1"
     gridtolerance="10"
     guidetolerance="4"
     inkscape:window-width="1920"
     inkscape:window-height="1017"
     inkscape:window-x="-8"
     inkscape:window-y="-8"
     inkscape:window-maximized="1">
    <inkscape:grid
       type="xygrid"
       id="grid815"
       spacingx="8.4666667"
       spacingy="8.4666667"
       empspacing="4" />
  </sodipodi:namedview>
  <metadata
     id="metadata5">
    <rdf:RDF>
      <cc:Work
         rdf:about="">
        <dc:format>image/svg+xml</dc:format>
        <dc:type
           rdf:resource="http://purl.org/dc/dcmitype/StillImage" />
        <dc:title />
      </cc:Work>
    </rdf:RDF>
  </metadata>
  <g
     inkscape:groupmode="layer"
     id="layer2"
     inkscape:label="Balls for comp"
     style="display:none"
     sodipodi:insensitive="true">
    <g
       transform="translate(1.3219956e-8,244.86669)"
       id="g831"
       style="stroke:#4e377b;stroke-opacity:1">
      <circle
         r="16.262196"
         cy="246.19998"
         cx="16.933332"
         id="path817"
         style="opacity:1;vector-effect:none;fill:#25d471;fill-opacity:1;stroke:#4e377b;stroke-width:0.79374999;stroke-linecap:round;stroke-linejoin:round;stroke-miterlimit:4;stroke-dasharray:none;stroke-dashoffset:0;stroke-opacity:1;paint-order:markers fill stroke" />
      <path
         sodipodi:nodetypes="cc"
         inkscape:connector-curvature="0"
         id="path821"
         d="M 3.1655508,254.19418 C 14.000766,249.29356 18.879298,241.06003 19.135045,230.23994"
         style="fill:none;stroke:#4e377b;stroke-width:0.79374999;stroke-linecap:butt;stroke-linejoin:miter;stroke-miterlimit:4;stroke-dasharray:none;stroke-opacity:1" />
      <path
         sodipodi:nodetypes="cc"
         inkscape:connector-curvature="0"
         id="path823"
         d="m 11.575521,248.80802 c 4.476153,3.20973 7.302643,7.29568 6.472843,13.32366"
         style="fill:none;stroke:#4e377b;stroke-width:0.79374999;stroke-linecap:butt;stroke-linejoin:miter;stroke-miterlimit:4;stroke-dasharray:none;stroke-opacity:1" />
      <path
         sodipodi:nodetypes="cc"
         inkscape:connector-curvature="0"
         id="path825"
         d="m 16.933334,241.81546 c 3.87856,4.61768 9.396875,5.71424 16.04509,4.38452"
         style="fill:none;stroke:#4e377b;stroke-width:0.79374999;stroke-linecap:butt;stroke-linejoin:miter;stroke-miterlimit:4;stroke-dasharray:none;stroke-opacity:1" />
    </g>
    <g
       id="g841"
       transform="translate(33.866667,244.86669)"
       style="fill:#7ad471;fill-opacity:1;stroke:#247bce;stroke-opacity:1">
      <circle
         style="opacity:1;vector-effect:none;fill:#7ad471;fill-opacity:1;stroke:#247bce;stroke-width:0.79374999;stroke-linecap:round;stroke-linejoin:round;stroke-miterlimit:4;stroke-dasharray:none;stroke-dashoffset:0;stroke-opacity:1;paint-order:markers fill stroke"
         id="circle833"
         cx="16.933332"
         cy="246.19998"
         r="16.262196" />
      <path
         style="fill:#7ad471;fill-opacity:1;stroke:#247bce;stroke-width:0.79374999;stroke-linecap:butt;stroke-linejoin:miter;stroke-miterlimit:4;stroke-dasharray:none;stroke-opacity:1"
         d="M 3.1655508,254.19418 C 14.000766,249.29356 18.879298,241.06003 19.135045,230.23994"
         id="path835"
         inkscape:connector-curvature="0"
         sodipodi:nodetypes="cc" />
      <path
         style="fill:#7ad471;fill-opacity:1;stroke:#247bce;stroke-width:0.79374999;stroke-linecap:butt;stroke-linejoin:miter;stroke-miterlimit:4;stroke-dasharray:none;stroke-opacity:1"
         d="m 11.575521,248.80802 c 4.476153,3.20973 7.302643,7.29568 6.472843,13.32366"
         id="path837"
         inkscape:connector-curvature="0"
         sodipodi:nodetypes="cc" />
      <path
         style="fill:#7ad471;fill-opacity:1;stroke:#247bce;stroke-width:0.79374999;stroke-linecap:butt;stroke-linejoin:miter;stroke-miterlimit:4;stroke-dasharray:none;stroke-opacity:1"
         d="m 16.933334,241.81546 c 3.87856,4.61768 9.396875,5.71424 16.04509,4.38452"
         id="path839"
         inkscape:connector-curvature="0"
         sodipodi:nodetypes="cc" />
    </g>
    <g
       id="g851"
       transform="translate(1.3219956e-8,278.73336)"
       style="fill:#7a4f71;fill-opacity:1;stroke:#98a35b;stroke-opacity:1">
      <circle
         style="opacity:1;vector-effect:none;fill:#7a4f71;fill-opacity:1;stroke:#98a35b;stroke-width:0.79374999;stroke-linecap:round;stroke-linejoin:round;stroke-miterlimit:4;stroke-dasharray:none;stroke-dashoffset:0;stroke-opacity:1;paint-order:markers fill stroke"
         id="circle843"
         cx="16.933332"
         cy="246.19998"
         r="16.262196" />
      <path
         style="fill:#7a4f71;fill-opacity:1;stroke:#98a35b;stroke-width:0.79374999;stroke-linecap:butt;stroke-linejoin:miter;stroke-miterlimit:4;stroke-dasharray:none;stroke-opacity:1"
         d="M 3.1655508,254.19418 C 14.000766,249.29356 18.879298,241.06003 19.135045,230.23994"
         id="path845"
         inkscape:connector-curvature="0"
         sodipodi:nodetypes="cc" />
      <path
         style="fill:#7a4f71;fill-opacity:1;stroke:#98a35b;stroke-width:0.79374999;stroke-linecap:butt;stroke-linejoin:miter;stroke-miterlimit:4;stroke-dasharray:none;stroke-opacity:1"
         d="m 11.575521,248.80802 c 4.476153,3.20973 7.302643,7.29568 6.472843,13.32366"
         id="path847"
         inkscape:connector-curvature="0"
         sodipodi:nodetypes="cc" />
      <path
         style="fill:#7a4f71;fill-opacity:1;stroke:#98a35b;stroke-width:0.79374999;stroke-linecap:butt;stroke-linejoin:miter;stroke-miterlimit:4;stroke-dasharray:none;stroke-opacity:1"
         d="m 16.933334,241.81546 c 3.87856,4.61768 9.396875,5.71424 16.04509,4.38452"
         id="path849"
         inkscape:connector-curvature="0"
         sodipodi:nodetypes="cc" />
    </g>
    <g
       transform="translate(33.866667,278.73336)"
       id="g861"
       style="fill:#cc8771;fill-opacity:1;stroke:#dc377b;stroke-opacity:1">
      <circle
         r="16.262196"
         cy="246.19998"
         cx="16.933332"
         id="circle853"
         style="opacity:1;vector-effect:none;fill:#cc8771;fill-opacity:1;stroke:#dc377b;stroke-width:0.79374999;stroke-linecap:round;stroke-linejoin:round;stroke-miterlimit:4;stroke-dasharray:none;stroke-dashoffset:0;stroke-opacity:1;paint-order:markers fill stroke" />
      <path
         sodipodi:nodetypes="cc"
         inkscape:connector-curvature="0"
         id="path855"
         d="M 3.1655508,254.19418 C 14.000766,249.29356 18.879298,241.06003 19.135045,230.23994"
         style="fill:#cc8771;fill-opacity:1;stroke:#dc377b;stroke-width:0.79374999;stroke-linecap:butt;stroke-linejoin:miter;stroke-miterlimit:4;stroke-dasharray:none;stroke-opacity:1" />
      <path
         sodipodi:nodetypes="cc"
         inkscape:connector-curvature="0"
         id="path857"
         d="m 11.575521,248.80802 c 4.476153,3.20973 7.302643,7.29568 6.472843,13.32366"
         style="fill:#cc8771;fill-opacity:1;stroke:#dc377b;stroke-width:0.79374999;stroke-linecap:butt;stroke-linejoin:miter;stroke-miterlimit:4;stroke-dasharray:none;stroke-opacity:1" />
      <path
         sodipodi:nodetypes="cc"
         inkscape:connector-curvature="0"
         id="path859"
         d="m 16.933334,241.81546 c 3.87856,4.61768 9.396875,5.71424 16.04509,4.38452"
         style="fill:#cc8771;fill-opacity:1;stroke:#dc377b;stroke-width:0.79374999;stroke-linecap:butt;stroke-linejoin:miter;stroke-miterlimit:4;stroke-dasharray:none;stroke-opacity:1" />
    </g>
  </g>
  <g
     inkscape:label="Layer 1"
     inkscape:groupmode="layer"
     id="layer1"
     transform="translate(0,244.86669)">
    <path
       style="fill:#7ad471;fill-opacity:1;stroke:none;stroke-width:1px;stroke-linecap:butt;stroke-linejoin:miter;stroke-opacity:1"
       d="M 0,0 V 2048 H 2048 V 0 Z M 256.85742,128.5 H 1791.1426 L 1919,256.35742 V 767.78516 C 1919.9995,1023.9993 1408.0002,1023.9997 1151.8574,1023.5 H 640.42773 c -82.52587,0.1073 -189.95887,0.2357 -288.42773,0.3359 V 1152 c -10e-6,32 -10e-6,32 32,32 h 128 c 63.99999,0 63.99999,-32 128,-32 h 1024 c 96,0 256,256 256,384 0,32 -32,256 -128,256 h -256 c -64,0 -128,-128 -128,-128 -32,-32 -96,-32 -128,0 -32,32 -64,128 -160,128 H 896 C 748.77886,1792 512,1583.3223 384,1536 256,1504 128,1408 128,1376 V 672 c 0,-32 31.99968,-63.99963 64.92773,-64.03516 H 1024 c 128,0.0357 416.0008,32.03428 511.4297,31.96289 C 1568.0008,639.99912 1632,576.00001 1632,512 v -96 c 0,-32.00013 4e-4,-31.99946 -28.6465,-31.78516 -195.3531,-0.2143 -459.0081,25.05895 -707.21092,0 C 755.4745,384.0007 767.99942,415.99934 640.42773,416.17773 560.63163,415.99927 512.00098,384.00054 384.71484,384.21484 128.00097,384.0007 128,384.00001 128,352 c 0,-63.99999 1,-95.64258 1,-95.64258 C 125.84875,172.18923 183.49242,143.20871 256.85742,128.5 Z"
       transform="matrix(0.26458334,0,0,0.26458334,0,-244.86669)"
       id="path1417"
       inkscape:connector-curvature="0"
       sodipodi:nodetypes="ccccccccccccccccsssscssscsscccssccccscc"
       inkscape:export-filename="C:\Users\aseab\OneDrive\Documents\Projects\2-buttons-jam-2018\Unity\v0.3 - Pinball Platformer\2-Buttons Jam 2018\Assets\SpriteSheets\test-level.png"
       inkscape:export-xdpi="96"
       inkscape:export-ydpi="96" />
  </g>
</svg>
